<?xml version="1.0" encoding="UTF-8"?>
<svg version="1.1" xmlns="http://www.w3.org/2000/svg" width="500" height="500">
<path d="M0 0 C165 0 330 0 500 0 C500 165 500 330 500 500 C335 500 170 500 0 500 C0 335 0 170 0 0 Z " fill="#E5E5E5" transform="translate(0,0)"/>
<path d="M0 0 C33.33 0 66.66 0 101 0 C107 26 107 26 106 29 C105.64808594 28.43152344 105.29617188 27.86304688 104.93359375 27.27734375 C97.09988573 15.02566985 87.20226847 7.88517155 73 4 C69.6711215 3.67837068 66.35057362 3.62823574 63.0078125 3.5859375 C62.16855225 3.56829346 61.32929199 3.55064941 60.46459961 3.5324707 C57.35158895 3.46975489 54.23826729 3.4233263 51.125 3.375 C40.668125 3.189375 40.668125 3.189375 30 3 C30 26.76 30 50.52 30 75 C50.07498846 75.35152602 50.07498846 75.35152602 68 68 C68.66 68 69.32 68 70 68 C71.52299523 65.06279492 72.80100302 62.0831351 74 59 C74.33 59 74.66 59 75 59 C75 69.56 75 80.12 75 91 C73.515 89.02 73.515 89.02 72 87 C67.12263623 81.28651673 62.06213864 79.76553466 55 78 C46.75 77.67 38.5 77.34 30 77 C30 101.42 30 125.84 30 151 C34.29 151 38.58 151 43 151 C46.74930518 151.44478847 50.36280301 151.94277941 54.0625 152.625 C55.05145264 152.80393799 56.04040527 152.98287598 57.05932617 153.16723633 C66.95713335 155.04570434 76.45705924 157.80122004 86 161 C86.97775391 161.32629395 87.95550781 161.65258789 88.96289062 161.98876953 C101.37455745 166.15776671 113.67569018 170.59829981 125.9375 175.1875 C165.518549 189.97017237 207.89179743 201.9936238 248.828125 185.03662109 C251.82470189 183.60637542 254.54060867 181.84328259 257.2734375 179.96411133 C259 179 259 179 262 179 C260.68771131 182.93686608 258.30166753 184.0883538 254.9375 186.1875 C254.31480225 186.57969727 253.69210449 186.97189453 253.05053711 187.37597656 C227.80047862 202.97723055 198.9321942 210.06424316 169.35131836 203.87207031 C165.4562002 202.8348203 161.74029967 201.49851073 158 200 C156.95086426 199.58057129 155.90172852 199.16114258 154.82080078 198.72900391 C140.95509762 193.07801021 127.41109261 186.75012631 113.88876343 180.33065796 C83.88672374 165.9740632 83.88672374 165.9740632 52 157 C50.80842285 156.74814941 50.80842285 156.74814941 49.59277344 156.49121094 C39.8625208 154.60497614 30.12502427 154.55239565 20.25 154.375 C18.47394111 154.33672846 16.69789896 154.29767176 14.921875 154.2578125 C10.61472263 154.16283122 6.30748396 154.07844544 2 154 C2.763125 153.236875 3.52625 152.47375 4.3125 151.6875 C10.41983076 144.29491278 10.43838382 134.12650659 10.37231445 124.98608398 C10.37596512 123.83986572 10.37961578 122.69364746 10.38337708 121.51269531 C10.39142486 117.75700658 10.37792095 114.00175716 10.36328125 110.24609375 C10.36276199 107.61776225 10.36328224 104.98943036 10.36479187 102.36109924 C10.36567123 96.86641285 10.35466878 91.37185067 10.33618164 85.87719727 C10.31500895 79.54861281 10.31150856 73.22020993 10.3177436 66.89159721 C10.32346204 60.77107356 10.31765612 54.65062325 10.30657005 48.5301075 C10.30273421 45.93987342 10.3015631 43.34963393 10.3031559 40.75939751 C10.30352868 37.13433486 10.29084675 33.50954322 10.2746582 29.88452148 C10.27713562 28.82501785 10.27961304 27.76551422 10.28216553 26.67390442 C10.34317277 14.89323962 10.34317277 14.89323962 5.5625 4.5 C3.06632538 1.91133079 3.06632538 1.91133079 0 0 Z " fill="#272727" transform="translate(195,158)"/>
<path d="M0 0 C6.73389295 1.8669622 15.53432612 4.07451175 22.09887695 0.79223633 C22.20597228 12.51322481 22.09028345 24.10780266 21.09887695 35.79223633 C18.93275976 33.62611914 18.64855237 32.66286603 17.84887695 29.79223633 C13.98437124 17.71322851 6.17600145 7.89635599 -4.90112305 1.79223633 C-13.86955001 -1.79513446 -23.10942471 -0.84877006 -31.90112305 2.79223633 C-37.55949319 5.50032787 -40.48051534 9.36713398 -43.0144043 15.05786133 C-45.60508721 23.04675136 -44.15107084 30.1821386 -40.7019043 37.68286133 C-32.54838511 51.76138904 -19.29274783 62.05874849 -6.63549805 71.88598633 C39.85448964 107.99566988 39.85448964 107.99566988 46.09887695 134.79223633 C46.40128238 138.35868328 46.43245904 141.901893 46.41137695 145.47973633 C46.40400513 146.94902588 46.40400513 146.94902588 46.39648438 148.44799805 C46.28072446 155.60136728 45.57328327 162.03482149 43.09887695 168.79223633 C42.74696289 169.79254883 42.39504883 170.79286133 42.0324707 171.82348633 C39.32727652 178.89448895 35.72477348 184.82100076 31.09887695 190.79223633 C30.48270508 191.61852539 29.8665332 192.44481445 29.23168945 193.29614258 C19.33094069 204.88328262 2.60614845 212.53329257 -12.42919922 214.17822266 C-16.05418324 214.32622688 -19.64862623 214.34779974 -23.27612305 214.29223633 C-24.55108643 214.27942627 -25.8260498 214.26661621 -27.13964844 214.25341797 C-46.61924965 213.83387265 -63.70485541 207.47104888 -77.90112305 193.79223633 C-91.42435603 179.49288736 -95.39691748 163.34446175 -95.11206055 144.27270508 C-94.62162985 129.87160134 -88.51681773 118.21886076 -78.15112305 108.37426758 C-65.00401841 97.34594508 -48.64280259 94.11453716 -31.90112305 94.79223633 C-31.90112305 95.12223633 -31.90112305 95.45223633 -31.90112305 95.79223633 C-32.7725293 95.93918945 -33.64393555 96.08614258 -34.54174805 96.23754883 C-50.13420239 99.17379023 -62.08688048 105.67917465 -71.71362305 118.60473633 C-81.31320604 133.20787555 -83.57260407 149.06469589 -81.40112305 166.22973633 C-79.13778865 176.95248369 -73.02186218 188.42943285 -64.90112305 195.79223633 C-64.32104492 196.31817383 -63.7409668 196.84411133 -63.14331055 197.38598633 C-49.97466109 208.18538086 -34.45410748 210.8541895 -17.90112305 209.79223633 C-4.35629891 208.06650392 7.8559362 203.10096349 17.09887695 192.79223633 C27.94491973 178.20952557 29.07201052 161.70607404 27.9309082 144.21801758 C26.05627772 132.63941751 17.65661132 121.34327293 10.09887695 112.79223633 C9.41180664 111.9852832 8.72473633 111.17833008 8.0168457 110.34692383 C0.42853048 101.62377948 -8.2181795 94.09266868 -16.92456055 86.51489258 C-51.94794683 55.99055789 -51.94794683 55.99055789 -54.3425293 34.90551758 C-54.90930447 25.78152729 -53.35776685 18.3217325 -47.90112305 10.79223633 C-34.51778848 -4.19315487 -18.30596196 -5.2590411 0 0 Z " fill="#252525" transform="translate(138.901123046875,157.207763671875)"/>
<path d="M0 0 C6.73389295 1.8669622 15.53432612 4.07451175 22.09887695 0.79223633 C22.20597228 12.51322481 22.09028345 24.10780266 21.09887695 35.79223633 C18.93275976 33.62611914 18.64855237 32.66286603 17.84887695 29.79223633 C13.98437124 17.71322851 6.17600145 7.89635599 -4.90112305 1.79223633 C-11.67991191 -0.91927922 -18.77778101 -0.81450823 -25.90112305 0.41723633 C-26.89112305 0.54098633 -27.88112305 0.66473633 -28.90112305 0.79223633 C-29.56112305 0.13223633 -30.22112305 -0.52776367 -30.90112305 -1.20776367 C-20.15447809 -5.11563457 -10.6393422 -3.05653087 0 0 Z " fill="#2A2A2A" transform="translate(138.901123046875,157.207763671875)"/>
<path d="M0 0 C0.66 0.66 1.32 1.32 2 2 C-1.12304165 2.39271781 -4.24847572 2.76113726 -7.375 3.125 C-8.70917969 3.29322266 -8.70917969 3.29322266 -10.0703125 3.46484375 C-11.34648438 3.60986328 -11.34648438 3.60986328 -12.6484375 3.7578125 C-13.43395996 3.8520752 -14.21948242 3.94633789 -15.02880859 4.04345703 C-17 4 -17 4 -19 2 C-12.78852503 -0.25871817 -6.58088641 -0.6790596 0 0 Z " fill="#4D4D4D" transform="translate(127,154)"/>
<path d="M0 0 C-1.10095362 3.30286086 -1.6896019 3.78510901 -4.4375 5.6875 C-5.36369141 6.34298828 -5.36369141 6.34298828 -6.30859375 7.01171875 C-8 8 -8 8 -10 8 C-9.02738378 4.72847271 -8.34232413 3.25454871 -5.5625 1.1875 C-3 0 -3 0 0 0 Z " fill="#393939" transform="translate(457,337)"/>
</svg>
